<svg width="40" height="40" viewBox="0 0 40 40" fill="none" xmlns="http://www.w3.org/2000/svg">
<path d="M22.708 18.708C22.5202 18.8958 22.2655 19.0012 22 19.0012C21.7344 19.0012 21.4798 18.8958 21.292 18.708C21.1042 18.5202 20.9987 18.2655 20.9987 18C20.9987 17.7344 21.1042 17.4798 21.292 17.292L29.292 9.29198C29.385 9.19901 29.4953 9.12525 29.6168 9.07493C29.7383 9.02462 29.8685 8.99872 30 8.99872C30.1315 8.99872 30.2617 9.02462 30.3832 9.07493C30.5046 9.12525 30.615 9.19901 30.708 9.29198C30.801 9.38496 30.8747 9.49534 30.925 9.61681C30.9754 9.73829 31.0013 9.86849 31.0013 9.99998C31.0013 10.1315 30.9754 10.2617 30.925 10.3831C30.8747 10.5046 30.801 10.615 30.708 10.708L22.708 18.708ZM10.708 30.708C10.615 30.801 10.5046 30.8747 10.3832 30.925C10.2617 30.9753 10.1315 31.0012 10 31.0012C9.86851 31.0012 9.73831 30.9753 9.61683 30.925C9.49535 30.8747 9.38497 30.801 9.292 30.708C9.19902 30.615 9.12527 30.5046 9.07495 30.3831C9.02463 30.2617 8.99873 30.1315 8.99873 30C8.99873 29.8685 9.02463 29.7383 9.07495 29.6168C9.12527 29.4953 9.19902 29.385 9.292 29.292L17.292 21.292C17.4798 21.1042 17.7344 20.9987 18 20.9987C18.2655 20.9987 18.5202 21.1042 18.708 21.292C18.8958 21.4798 19.0013 21.7344 19.0013 22C19.0013 22.2655 18.8958 22.5202 18.708 22.708L10.708 30.708Z" fill="#777FB4"/>
<path d="M10 31C9.73478 31 9.48043 30.8946 9.29289 30.7071C9.10536 30.5196 9 30.2652 9 30C9 29.7348 9.10536 29.4804 9.29289 29.2929C9.48043 29.1054 9.73478 29 10 29H18C18.2652 29 18.5196 29.1054 18.7071 29.2929C18.8946 29.4804 19 29.7348 19 30C19 30.2652 18.8946 30.5196 18.7071 30.7071C18.5196 30.8946 18.2652 31 18 31H10Z" fill="#777FB4"/>
<path d="M11 30C11 30.2652 10.8946 30.5196 10.7071 30.7071C10.5196 30.8946 10.2652 31 10 31C9.73478 31 9.48043 30.8946 9.29289 30.7071C9.10536 30.5196 9 30.2652 9 30V22C9 21.7348 9.10536 21.4804 9.29289 21.2929C9.48043 21.1054 9.73478 21 10 21C10.2652 21 10.5196 21.1054 10.7071 21.2929C10.8946 21.4804 11 21.7348 11 22V30ZM31 18C31 18.2652 30.8946 18.5196 30.7071 18.7071C30.5196 18.8946 30.2652 19 30 19C29.7348 19 29.4804 18.8946 29.2929 18.7071C29.1054 18.5196 29 18.2652 29 18V10C29 9.73478 29.1054 9.48043 29.2929 9.29289C29.4804 9.10536 29.7348 9 30 9C30.2652 9 30.5196 9.10536 30.7071 9.29289C30.8946 9.48043 31 9.73478 31 10V18Z" fill="#777FB4"/>
<path d="M22 11C21.7348 11 21.4804 10.8946 21.2929 10.7071C21.1054 10.5196 21 10.2652 21 10C21 9.73478 21.1054 9.48043 21.2929 9.29289C21.4804 9.10536 21.7348 9 22 9H30C30.2652 9 30.5196 9.10536 30.7071 9.29289C30.8946 9.48043 31 9.73478 31 10C31 10.2652 30.8946 10.5196 30.7071 10.7071C30.5196 10.8946 30.2652 11 30 11H22Z" fill="#777FB4"/>
</svg>
