<svg width="52" height="52" viewBox="0 0 52 52" fill="none" xmlns="http://www.w3.org/2000/svg">
<circle cx="26" cy="26" r="26" fill="#ECEAEF"/>
<path d="M40.9935 13.8519C40.154 12.9931 39.1573 12.3118 38.0602 11.8469C36.9632 11.3821 35.7873 11.1429 34.5998 11.1429C33.4123 11.1429 32.2364 11.3821 31.1393 11.8469C30.0423 12.3118 29.0455 12.9931 28.206 13.8519L26.4638 15.6335L24.7215 13.8519C23.0258 12.1179 20.7259 11.1438 18.3278 11.1438C15.9297 11.1438 13.6298 12.1179 11.934 13.8519C10.2383 15.5859 9.28564 17.9377 9.28564 20.39C9.28564 22.8422 10.2383 25.194 11.934 26.928L13.6763 28.7096L26.4638 41.7857L39.2513 28.7096L40.9935 26.928C41.8334 26.0696 42.4997 25.0503 42.9543 23.9285C43.4088 22.8067 43.6428 21.6043 43.6428 20.39C43.6428 19.1757 43.4088 17.9732 42.9543 16.8514C42.4997 15.7296 41.8334 14.7104 40.9935 13.8519Z" fill="#777FB4" stroke="#777FB4" stroke-width="2" stroke-linecap="round" stroke-linejoin="round"/>
</svg>
