<svg width="52" height="52" viewBox="0 0 52 52" fill="none" xmlns="http://www.w3.org/2000/svg">
<circle cx="26" cy="26" r="26" fill="#ECEAEF"/>
<path d="M34.3771 13.5943C35.2703 13.5935 36.1547 13.7709 36.9784 14.1161C37.8021 14.4613 38.5485 14.9673 39.1739 15.6045C40.4626 16.9115 41.1849 18.6726 41.1849 20.5073C41.1849 22.342 40.4626 24.1031 39.1739 25.4102L26.4642 38.2679L13.7545 25.4102C12.4659 24.1031 11.7435 22.342 11.7435 20.5073C11.7435 18.6726 12.4659 16.9115 13.7545 15.6045C14.3803 14.9678 15.1268 14.462 15.9504 14.1168C16.774 13.7716 17.6582 13.5938 18.5513 13.5938C19.4445 13.5938 20.3287 13.7716 21.1523 14.1168C21.9759 14.462 22.7224 14.9678 23.3481 15.6045L26.4642 18.7913L29.568 15.629C30.1915 14.9842 30.9388 14.4717 31.7651 14.1221C32.5914 13.7725 33.4798 13.593 34.3771 13.5943ZM34.3771 11.1429C33.1572 11.1418 31.9494 11.3841 30.8244 11.8556C29.6995 12.3271 28.6801 13.0182 27.826 13.8885L26.4642 15.2613L25.1025 13.8885C24.2473 13.0198 23.2277 12.3299 22.1029 11.8589C20.9782 11.388 19.7709 11.1454 18.5513 11.1454C17.3318 11.1454 16.1245 11.388 14.9997 11.8589C13.875 12.3299 12.8553 13.0198 12.0002 13.8885C10.2604 15.6579 9.28564 18.0392 9.28564 20.5196C9.28564 23 10.2604 25.3812 12.0002 27.1507L26.4642 41.7857L40.9282 27.1507C42.668 25.3812 43.6428 23 43.6428 20.5196C43.6428 18.0392 42.668 15.6579 40.9282 13.8885C40.0729 13.0199 39.0532 12.3298 37.9286 11.8585C36.8039 11.3871 35.5967 11.1439 34.3771 11.1429Z" fill="#777FB4"/>
</svg>
